<?xml version="1.0" encoding="UTF-8" standalone="no"?>
<!-- Created with Inkscape (http://www.inkscape.org/) -->

<svg
   width="59.112526mm"
   height="48.475723mm"
   viewBox="0 0 59.112526 48.475723"
   version="1.1"
   id="svg5"
   inkscape:version="1.1.1 (c3084ef, 2021-09-22)"
   sodipodi:docname="logo 1.svg"
   xmlns:inkscape="http://www.inkscape.org/namespaces/inkscape"
   xmlns:sodipodi="http://sodipodi.sourceforge.net/DTD/sodipodi-0.dtd"
   xmlns="http://www.w3.org/2000/svg"
   xmlns:svg="http://www.w3.org/2000/svg">
  <sodipodi:namedview
     id="namedview7"
     pagecolor="#ffffff"
     bordercolor="#666666"
     borderopacity="1.0"
     inkscape:pageshadow="2"
     inkscape:pageopacity="0.0"
     inkscape:pagecheckerboard="0"
     inkscape:document-units="mm"
     showgrid="false"
     inkscape:zoom="0.82993848"
     inkscape:cx="81.933784"
     inkscape:cy="10.241723"
     inkscape:window-width="1496"
     inkscape:window-height="849"
     inkscape:window-x="108"
     inkscape:window-y="34"
     inkscape:window-maximized="0"
     inkscape:current-layer="layer1" />
  <defs
     id="defs2" />
  <g
     inkscape:label="Layer 1"
     inkscape:groupmode="layer"
     id="layer1"
     transform="translate(-76.1211,-123.99348)">
    <path
       d="m 88.926524,128.69606 v 3.28661 h -1.152381 v -6.85228 h 1.152381 v 3.12125 h 3.441639 v -3.12125 h 1.152381 v 6.85228 h -1.152381 v -3.28661 z"
       style="font-size:10.5833px;line-height:1.25;font-family:'Tamil MN';-inkscape-font-specification:'Tamil MN';text-align:center;text-anchor:middle;fill:#000000;fill-opacity:1;stroke-width:0.264583"
       id="path40462" />
    <path
       d="m 97.618472,132.09635 q -0.537433,0 -1.012855,-0.20153 -0.470254,-0.20154 -0.821653,-0.54777 -0.351398,-0.34623 -0.558103,-0.81132 -0.201538,-0.47025 -0.201538,-0.99735 0,-0.63562 0.186035,-1.17305 0.186034,-0.5426 0.527098,-0.93534 0.341063,-0.39274 0.816485,-0.61495 0.480589,-0.22221 1.069699,-0.22221 0.516762,0 0.950843,0.18604 0.434081,0.18086 0.744138,0.49092 0.315225,0.30489 0.485757,0.70797 0.175699,0.40307 0.175699,0.84232 h -3.942899 q 0,0.53226 0.134358,0.98702 0.139526,0.45475 0.387572,0.78547 0.248047,0.33073 0.58911,0.51677 0.341063,0.18603 0.749306,0.18603 0.341063,0 0.656288,-0.10852 0.315226,-0.11369 0.568439,-0.29455 0.258382,-0.18087 0.439249,-0.41341 0.180867,-0.23255 0.253213,-0.48059 l 0.304887,0.13436 q -0.11368,0.40824 -0.366898,0.7648 -0.253214,0.35657 -0.594277,0.62529 -0.335896,0.26355 -0.733803,0.41858 -0.397908,0.15502 -0.80615,0.15502 z m 1.043861,-3.70002 q 0,-0.29972 -0.108521,-0.5581 -0.103352,-0.25838 -0.289387,-0.44442 -0.186034,-0.1912 -0.43408,-0.29972 -0.248046,-0.10852 -0.532266,-0.10852 -0.237711,0 -0.454751,0.10852 -0.21704,0.10335 -0.387572,0.29456 -0.170532,0.18603 -0.28422,0.44441 -0.10852,0.25838 -0.12919,0.55811 z"
       style="font-size:10.5833px;line-height:1.25;font-family:'Tamil MN';-inkscape-font-specification:'Tamil MN';text-align:center;text-anchor:middle;fill:#000000;fill-opacity:1;stroke-width:0.264583"
       id="path40464" />
    <path
       d="m 104.91516,131.98267 q -0.2067,-0.10336 -0.3514,-0.28939 -0.13952,-0.1912 -0.13952,-0.43408 -0.18604,0.13952 -0.36691,0.28939 -0.17569,0.14986 -0.38757,0.27388 -0.2067,0.11886 -0.46508,0.19637 -0.25322,0.0775 -0.58911,0.0775 -0.31006,0 -0.56327,-0.10335 -0.24805,-0.0982 -0.42375,-0.27388 -0.17053,-0.1757 -0.26872,-0.41858 -0.093,-0.24288 -0.093,-0.52193 0,-0.34106 0.13435,-0.61495 0.13436,-0.27388 0.36691,-0.48576 0.23771,-0.21704 0.54776,-0.3824 0.31006,-0.17053 0.66146,-0.29972 0.3514,-0.13436 0.72347,-0.23771 0.37207,-0.10336 0.72347,-0.19121 v -0.33072 q 0,-0.36174 -0.0517,-0.60978 -0.0517,-0.24805 -0.1602,-0.39791 -0.10852,-0.15503 -0.27905,-0.21704 -0.16536,-0.0672 -0.39791,-0.0672 -0.2222,0 -0.40824,0.0878 -0.18603,0.0879 -0.33073,0.23771 -0.13952,0.14469 -0.23254,0.34623 -0.0879,0.19637 -0.11886,0.41858 h -0.96117 q 0.0413,-0.34106 0.23254,-0.60978 0.19637,-0.26872 0.49092,-0.44958 0.29456,-0.18604 0.66663,-0.28422 0.37723,-0.0982 0.78031,-0.0982 0.51676,0 0.86816,0.10335 0.3514,0.0982 0.56327,0.27906 0.21187,0.18086 0.29972,0.44441 0.093,0.25838 0.093,0.57361 v 3.26594 q 0,0.24288 0.13953,0.43408 0.14469,0.18603 0.3514,0.28939 z m -0.49092,-3.07991 q -0.22738,0.0724 -0.47026,0.16536 -0.24288,0.093 -0.47542,0.21188 -0.23254,0.11369 -0.44442,0.24804 -0.21187,0.13436 -0.37206,0.28939 -0.1602,0.15503 -0.25322,0.32556 -0.093,0.17053 -0.093,0.35657 0,0.19637 0.0724,0.37207 0.0724,0.17053 0.1912,0.30489 0.11886,0.12919 0.27389,0.2067 0.15503,0.0724 0.32039,0.0724 0.1757,0 0.3359,-0.0465 0.16019,-0.0465 0.31005,-0.12402 0.14986,-0.0827 0.29973,-0.18604 0.14986,-0.10335 0.30489,-0.22221 z"
       style="font-size:10.5833px;line-height:1.25;font-family:'Tamil MN';-inkscape-font-specification:'Tamil MN';text-align:center;text-anchor:middle;fill:#000000;fill-opacity:1;stroke-width:0.264583"
       id="path40466" />
    <path
       d="m 108.23795,131.98267 h -1.0542 v -7.68943 l 0.74931,-0.29972 h 0.30489 z"
       style="font-size:10.5833px;line-height:1.25;font-family:'Tamil MN';-inkscape-font-specification:'Tamil MN';text-align:center;text-anchor:middle;fill:#000000;fill-opacity:1;stroke-width:0.264583"
       id="path40468" />
    <path
       d="m 111.20933,124.89268 h 0.29972 v 1.79834 h 1.17822 v 0.44958 h -1.17822 v 3.72586 q 0,0.11885 0.0413,0.22221 0.0465,0.10335 0.11886,0.18086 0.0775,0.0775 0.18087,0.12403 0.10335,0.0413 0.22737,0.0413 0.1757,0 0.32039,-0.0879 0.1447,-0.0879 0.25322,-0.21704 l 0.26355,0.1757 q -0.21704,0.3669 -0.56327,0.57877 -0.34623,0.21187 -0.85783,0.21187 -0.26355,0 -0.45992,-0.093 -0.19637,-0.0879 -0.32556,-0.24805 -0.12402,-0.16536 -0.18603,-0.38757 -0.062,-0.22738 -0.062,-0.50126 v -3.72586 h -0.91983 v -0.19637 l 0.91983,-0.25321 v -1.50378 z"
       style="font-size:10.5833px;line-height:1.25;font-family:'Tamil MN';-inkscape-font-specification:'Tamil MN';text-align:center;text-anchor:middle;fill:#000000;fill-opacity:1;stroke-width:0.264583"
       id="path40470" />
    <path
       d="m 115.3486,127.66253 q 0.47025,-0.53743 0.99218,-0.80098 0.52194,-0.26872 1.0542,-0.26872 0.27905,0 0.51676,0.12402 0.24288,0.12403 0.42375,0.34107 0.18087,0.21704 0.28422,0.51159 0.10335,0.28939 0.10335,0.62012 v 3.79304 h -1.04903 v -3.61218 q 0,-0.52709 -0.23771,-0.79581 -0.23771,-0.27388 -0.60978,-0.27388 -0.16536,0 -0.3514,0.0568 -0.18603,0.0568 -0.37723,0.1602 -0.19121,0.0982 -0.38241,0.23771 -0.1912,0.13952 -0.3669,0.31005 v 3.91707 h -1.0542 v -7.68943 l 0.75448,-0.29972 h 0.29972 z"
       style="font-size:10.5833px;line-height:1.25;font-family:'Tamil MN';-inkscape-font-specification:'Tamil MN';text-align:center;text-anchor:middle;fill:#000000;fill-opacity:1;stroke-width:0.264583"
       id="path40472" />
    <path
       d="m 79.040809,138.08837 q -0.170531,0 -0.315225,0.093 -0.139526,0.0879 -0.242878,0.23771 -0.09818,0.1447 -0.155029,0.3359 -0.05168,0.1912 -0.05168,0.39274 v 1.2454 h 1.410762 v 0.44958 h -1.410762 v 4.84207 H 77.221801 V 140.8427 H 76.1211 v -0.44958 h 1.100705 v -0.60978 q 0,-0.43408 0.155028,-0.81132 0.155029,-0.38241 0.418578,-0.66146 0.268717,-0.28422 0.625283,-0.44958 0.361734,-0.16537 0.769976,-0.16537 0.279052,0 0.537434,0.0724 0.263549,0.0724 0.485757,0.20671 0.222208,0.12919 0.392739,0.32556 0.1757,0.1912 0.279052,0.42891 l -0.764809,0.55294 q -0.05684,-0.20671 -0.134358,-0.41858 -0.07751,-0.21187 -0.19637,-0.38241 -0.118855,-0.1757 -0.299722,-0.28422 -0.180867,-0.10852 -0.449584,-0.10852 z"
       style="font-size:10.5833px;line-height:1.25;font-family:'Tamil MN';-inkscape-font-specification:'Tamil MN';fill:#000000;fill-opacity:1;stroke-width:0.264583"
       id="path40474" />
    <path
       d="m 83.112899,145.79847 q -0.60978,0 -1.121375,-0.21187 -0.511595,-0.21187 -0.883664,-0.57361 -0.372069,-0.3669 -0.583942,-0.85265 -0.206705,-0.49093 -0.206705,-1.04903 0,-0.58394 0.206705,-1.09554 0.211873,-0.51676 0.583942,-0.89917 0.372069,-0.3824 0.883664,-0.59944 0.511595,-0.22221 1.121375,-0.22221 0.604612,0 1.11104,0.20154 0.511595,0.20154 0.883664,0.55293 0.372069,0.3514 0.578774,0.82682 0.211873,0.47026 0.211873,1.01286 0,0.59944 -0.211873,1.13171 -0.206705,0.5271 -0.578774,0.92501 -0.372069,0.39273 -0.883664,0.62528 -0.506428,0.22737 -1.11104,0.22737 z m 0.201538,-0.38757 q 0.310057,0 0.568439,-0.16019 0.258381,-0.1602 0.444415,-0.42892 0.186035,-0.27388 0.289388,-0.63045 0.103352,-0.35656 0.103352,-0.75447 0,-0.57361 -0.09819,-1.07487 -0.09819,-0.50126 -0.320393,-0.87333 -0.222208,-0.37207 -0.578774,-0.58394 -0.356566,-0.21704 -0.868161,-0.21704 -0.263549,0 -0.511595,0.15503 -0.248046,0.14986 -0.439249,0.41341 -0.186034,0.26355 -0.299722,0.62011 -0.113688,0.3514 -0.113688,0.74931 0,0.57877 0.118856,1.0852 0.124023,0.50643 0.356566,0.88367 0.237711,0.37723 0.573607,0.59944 0.341063,0.21704 0.775144,0.21704 z"
       style="font-size:10.5833px;line-height:1.25;font-family:'Tamil MN';-inkscape-font-specification:'Tamil MN';fill:#000000;fill-opacity:1;stroke-width:0.264583"
       id="path40476" />
    <path
       d="m 88.140999,140.29495 h 0.160197 l 0.139526,1.08004 q 0.124023,-0.23772 0.310057,-0.43409 0.186035,-0.19637 0.408243,-0.34106 0.227375,-0.14469 0.475421,-0.22221 0.253214,-0.0827 0.511595,-0.0827 0.232544,0 0.454752,0.062 0.227375,0.062 0.423745,0.19637 l -0.330728,0.88367 q -0.103353,-0.11369 -0.21704,-0.18087 -0.113688,-0.0724 -0.232544,-0.10852 -0.118855,-0.0413 -0.242878,-0.0517 -0.124023,-0.0103 -0.248046,-0.0103 -0.19637,0 -0.387572,0.0568 -0.186035,0.0568 -0.356566,0.17053 -0.170532,0.10852 -0.315226,0.28422 -0.144693,0.17053 -0.253213,0.40308 v 3.68452 h -1.049029 v -5.10045 z"
       style="font-size:10.5833px;line-height:1.25;font-family:'Tamil MN';-inkscape-font-specification:'Tamil MN';fill:#000000;fill-opacity:1;stroke-width:0.264583"
       id="path40478" />
    <g
       id="g41999"
       transform="translate(-4.2333335,5.426072)"
       style="fill:#e65c00;fill-opacity:1;stroke:#000000;stroke-opacity:1">
      <path
         d="m 109.58331,130.28369 q -0.21166,-0.0706 -0.49389,-0.10584 -0.24694,-0.0353 -0.635,-0.0353 -0.67027,0 -1.02305,0.42333 -0.35278,0.42333 -0.74083,0.91722 -0.45861,0.635 -0.9525,1.41111 -0.49389,0.74083 -0.88195,1.44639 -0.35277,0.59972 -0.84666,1.44639 -0.45861,0.81138 -0.98778,1.76388 -0.52917,0.91722 -1.09361,1.86972 -0.52917,0.9525 -1.02305,1.79917 -0.84667,1.41111 -1.728614,2.2225 -0.846666,0.77611 -1.799165,1.30527 -0.211666,0.10584 -0.246944,0.21167 -0.03528,0.10583 0.282222,0.10583 0.987777,-0.10583 2.363609,-0.21166 1.375832,-0.10584 2.681112,-0.17639 1.34055,-0.10583 2.39888,-0.17639 1.05834,-0.0706 1.48167,-0.0706 0.17639,0 0.45861,0 0.3175,0 0.635,0.0353 0.3175,0 0.59972,0.0353 0.28222,0 0.42333,0.0353 0.56445,0.14111 0.56445,0.49389 0,0.17639 -0.17639,0.67027 -0.14111,0.52917 -0.28222,0.81139 -0.0706,0 -0.0706,-0.14111 0,-0.17639 -0.0705,-0.35278 -0.0353,-0.17639 -0.24695,-0.24694 -0.52916,-0.21167 -1.19944,-0.3175 -0.67028,-0.10583 -1.37583,-0.14111 -0.70556,-0.0706 -1.37584,-0.0706 -0.67027,-0.0353 -1.26999,-0.0353 -2.04611,0 -3.457224,0.0705 -1.375832,0.0706 -2.328331,0.17639 -0.9525,0.10583 -1.552221,0.21167 -0.599722,0.14111 -1.058333,0.28222 -0.141111,-0.0353 -0.246944,-0.17639 -0.105833,-0.10583 -0.105833,-0.21167 0,-0.21166 0.282222,-0.21166 0.634999,0 1.128888,-0.0706 0.493888,-0.0705 0.846666,-0.28222 0.564444,-0.35278 1.058332,-0.9525 0.529166,-0.635 1.269999,-1.86972 0.740833,-1.23472 1.552219,-2.71639 0.84667,-1.48166 1.65806,-2.99861 0.84666,-1.55222 1.65805,-2.99861 0.81139,-1.48166 1.48167,-2.61055 0.0706,-0.17639 0.21166,-0.24694 0.17639,-0.10584 0.35278,-0.17639 0.74083,-0.28222 1.83444,-0.45861 1.12889,-0.17639 2.01083,-0.17639 0.17639,0.0705 0.14112,0.24694 0,0.17639 -0.10584,0.24695 z"
         style="font-size:14.1111px;line-height:1.25;font-family:Zapfino;-inkscape-font-specification:Zapfino;fill:#e65c00;fill-opacity:1;stroke-width:0.264583;stroke:#000000;stroke-opacity:1"
         id="path40480" />
      <path
         d="m 117.62113,133.17646 q 0,0.42334 -0.38806,0.84667 -0.35278,0.42333 -0.81139,0.42333 -0.42333,0 -0.42333,-0.42333 0,-0.45861 0.3175,-0.88195 0.35278,-0.42333 0.84667,-0.42333 0.45861,0 0.45861,0.45861 z m 1.5875,7.86694 q -0.84667,1.09361 -1.94028,2.08139 -1.09361,0.98777 -2.01083,1.5875 -0.70556,0.45861 -1.44639,0.70555 -0.74083,0.24695 -1.34056,0.24695 -0.21166,0 -0.49388,-0.0353 -0.28223,-0.0353 -0.52917,-0.17639 -0.21167,-0.14111 -0.38806,-0.35278 -0.14111,-0.24694 -0.14111,-0.635 0,-0.45861 0.35278,-1.23472 0.35278,-0.81139 0.81139,-1.65805 0.49389,-0.84667 0.9525,-1.62278 0.49389,-0.77611 0.77611,-1.16417 0.17639,-0.28222 0.59972,-0.45861 0.45861,-0.21166 0.59972,-0.21166 0.17639,0 0.17639,0.10583 0,0.0706 -0.0705,0.21167 -0.0353,0.14111 -0.10584,0.21166 -0.45861,0.70556 -0.9525,1.55222 -0.45861,0.84667 -0.84666,1.65806 -0.38806,0.77611 -0.635,1.44639 -0.21167,0.67027 -0.21167,1.05833 0,0.42333 0.21167,0.635 0.24694,0.17639 0.635,0.17639 0.70555,0 1.55222,-0.45861 0.84666,-0.49389 1.65805,-1.16417 0.84667,-0.67028 1.55222,-1.41111 0.70556,-0.74083 1.09361,-1.27 0.17639,-0.17639 0.17639,-0.0705 0.0353,0.0705 -0.0353,0.24694 z"
         style="font-size:14.1111px;line-height:1.25;font-family:Zapfino;-inkscape-font-specification:Zapfino;fill:#e65c00;fill-opacity:1;stroke-width:0.264583;stroke:#000000;stroke-opacity:1"
         id="path40482" />
      <path
         d="m 139.46687,120.44119 q 0,0.14112 -0.0705,0.49389 -0.0353,0.35278 -0.10583,0.77611 -0.0353,0.42334 -0.10584,0.84667 -0.0353,0.42333 -0.0353,0.635 -0.0705,0.0705 -0.17638,0.0705 -0.0706,0 -0.14112,-0.0705 0.0706,-0.28222 0.0706,-0.49389 0.0353,-0.21167 0.0353,-0.42333 0,-0.70556 -0.59972,-1.09361 -0.56445,-0.38806 -1.62278,-0.38806 -0.74083,0 -1.55222,0.24695 -0.77611,0.24694 -1.62278,0.88194 -0.81139,0.635 -1.72861,1.69333 -0.88194,1.05833 -1.83444,2.68111 -0.52917,0.91722 -1.30528,2.36361 -0.77611,1.44639 -1.65805,3.10444 -0.88195,1.62278 -1.76389,3.35139 -0.88194,1.69333 -1.62278,3.175 0.3175,0 1.05834,0 0.74083,-0.0353 1.51694,-0.0353 0.77611,0 1.41111,0 0.67028,0 0.88194,0 0.17639,0.10583 0.10584,0.35278 -0.14111,0 -0.70556,0 -0.56444,0 -1.34055,0.0353 -0.77611,0 -1.62278,0.0353 -0.81139,0 -1.48166,0 -1.16417,2.25778 -2.46945,4.55083 -1.27,2.25778 -2.57527,4.37444 -1.27,2.11667 -2.54,3.91583 -1.23472,1.83445 -2.29306,3.21028 -2.64583,3.38666 -5.00944,5.71499 -2.39888,2.36361 -4.55083,3.81 -2.15194,1.48167 -4.021659,2.11667 -1.904999,0.67027 -3.598331,0.67027 -0.493888,0 -1.058332,-0.10583 -0.599722,-0.10583 -1.128888,-0.42333 -0.564444,-0.3175 -0.987777,-0.91723 -0.423333,-0.56444 -0.635,-1.51694 0,-0.28222 0.07056,-0.24694 0.07055,0.0353 0.141111,0.21166 0.03528,0.24695 0.282222,0.635 0.246944,0.42334 0.740833,0.81139 0.45861,0.38806 1.164165,0.635 0.705555,0.28222 1.693332,0.28222 1.587499,-0.0353 3.457214,-0.59972 1.83445,-0.52916 3.88055,-1.905 2.04611,-1.37583 4.30389,-3.70416 2.2225,-2.29305 4.62139,-5.82083 1.26999,-1.86972 2.53999,-4.02166 1.23472,-2.11667 2.39889,-4.23333 1.19944,-2.08139 2.2225,-4.02167 1.05833,-1.94027 1.905,-3.38666 -1.51695,0.10583 -2.39889,0.21167 -0.88194,0.10583 -1.41111,0.35277 -0.52917,0.21167 -0.84667,0.67028 -0.28222,0.42333 -0.67027,1.19944 l -0.10584,-0.0353 q 0.49389,-1.16417 0.98778,-1.72861 0.49389,-0.59973 0.91722,-0.74084 0.28222,-0.0705 0.74084,-0.14111 0.49388,-0.0705 1.02305,-0.10583 0.56444,-0.0353 1.09361,-0.0706 0.52917,-0.0353 0.91722,-0.0353 1.76389,-3.24556 3.38667,-5.99722 1.65805,-2.78694 3.42194,-5.43278 0.9525,-1.44638 2.04611,-2.78694 1.09361,-1.37583 2.2225,-2.39888 1.12888,-1.05834 2.22249,-1.65806 1.12889,-0.635 2.15195,-0.635 0.70555,0 1.23472,0.3175 0.52916,0.3175 0.52916,0.74083 z"
         style="font-size:14.1111px;line-height:1.25;font-family:Zapfino;-inkscape-font-specification:Zapfino;fill:#e65c00;fill-opacity:1;stroke-width:0.264583;stroke:#000000;stroke-opacity:1"
         id="path40484" />
      <path
         d="m 133.97016,141.46673 q -0.59972,0.74084 -1.44639,1.55222 -0.81139,0.77612 -1.79916,1.44639 -0.9525,0.635 -2.01083,1.05833 -1.02306,0.38806 -2.04611,0.38806 -1.65806,0 -1.65806,-1.48167 0,-0.98777 0.49389,-2.11666 0.52917,-1.16417 1.34056,-2.11667 0.81138,-0.98777 1.76388,-1.62277 0.98778,-0.67028 1.86972,-0.67028 0.49389,0 0.67028,0.17639 0.21167,0.17639 0.21167,0.45861 0,0.42333 -0.28222,0.91722 -0.24695,0.49389 -0.77612,0.9525 -0.52916,0.42333 -1.34055,0.74083 -0.81139,0.28223 -1.94028,0.28223 -0.17638,0.3175 -0.38805,1.02305 -0.21167,0.67028 -0.21167,1.37583 0,1.44639 1.30528,1.44639 0.81139,0 1.65805,-0.38805 0.88195,-0.38806 1.69334,-0.9525 0.81138,-0.59973 1.48166,-1.27 0.70556,-0.70556 1.16417,-1.30528 0.0705,-0.0706 0.14111,-0.0353 0.10583,0.0353 0.10583,0.14111 z m -3.70416,-2.75166 q 0,-0.45861 -0.45861,-0.45861 -0.35278,0 -0.74084,0.28222 -0.35277,0.24694 -0.70555,0.67028 -0.35278,0.42333 -0.67028,0.91722 -0.3175,0.49389 -0.52916,0.9525 0.0706,0.0353 0.24694,0.0705 0.17639,0 0.28222,0 1.02306,0 1.79917,-0.70555 0.77611,-0.74083 0.77611,-1.72861 z"
         style="font-size:14.1111px;line-height:1.25;font-family:Zapfino;-inkscape-font-specification:Zapfino;fill:#e65c00;fill-opacity:1;stroke-width:0.264583;stroke:#000000;stroke-opacity:1"
         id="path40486" />
    </g>
  </g>
</svg>
